<svg width="100" height="100" viewBox="0 0 100 100" fill="none" xmlns="http://www.w3.org/2000/svg">
<path d="M9.76039 48.3604V63.2857L9.73801 58.9051L2.14844 58.8902V43.9648L9.73801 43.9798L9.76039 48.3604Z" fill="#F5F5F5" stroke="#666666" stroke-linecap="round" stroke-linejoin="round"/>
<path d="M24.985 57.1533V72.0787L24.9626 67.6981L17.373 67.6832V52.7578L24.9626 52.7727L24.9701 54.5041L24.985 57.1533Z" fill="#F5F5F5" stroke="#666666" stroke-linecap="round" stroke-linejoin="round"/>
<path d="M47.8209 70.3295V85.2548L47.7985 80.8742L40.209 80.8668V65.9414L47.7985 65.9489L47.8209 70.3295Z" fill="#F5F5F5" stroke="#666666" stroke-linecap="round" stroke-linejoin="round"/>
<path d="M98.2531 41.2188V56.1441L47.8203 85.2561V70.3307L52.5442 67.5993L57.589 64.6964L62.6263 61.7859L67.6785 58.868L72.7233 55.9576L83.0441 50.0023L98.2531 41.2188Z" fill="#F5F5F5" stroke="#666666" stroke-linecap="round" stroke-linejoin="round"/>
<path d="M90.6635 41.2059L90.6411 36.8253L83.0515 36.8104L83.0291 32.4298L75.4396 32.4149L75.4172 28.0343L67.8276 28.0193L67.8052 23.6387L60.2156 23.6238L60.1932 19.2432L52.6037 19.2283L52.5813 14.8477L2.14844 43.9671L9.73801 43.982L9.76039 48.3626L17.3499 48.3775V50.1089L17.3723 52.7581L24.9619 52.7731V54.5044L24.9843 57.1536H32.5738L32.5962 61.5492H40.1858L40.2082 65.9447H47.7977L47.8201 70.3328L52.544 67.6014L57.5887 64.6984L62.6261 61.788L67.6783 58.8701L72.7231 55.9596L83.0441 50.0044L98.253 41.2208L90.6635 41.2059ZM55.0216 57.3925L52.8201 58.6611L35.2977 48.5417L27.6858 44.1462L27.4096 43.9895L22.3723 41.079L27.4096 38.1686L32.7231 41.2358L37.4992 43.9969L57.8649 55.7507L55.0216 57.3925ZM65.1111 51.5641L62.9022 52.8402L45.3873 42.7208L37.7679 38.3253L37.4992 38.1686L32.4544 35.2581L37.4992 32.3477L42.8126 35.4149L47.5888 38.1761L67.947 49.9298L65.1111 51.5641ZM75.4321 45.6014L72.9917 47.0119L47.8574 32.5044L47.5888 32.3477L42.544 29.4372L47.5888 26.5268L78.0366 44.1014L75.4321 45.6014Z" fill="#F5F5F5" stroke="#666666" stroke-linecap="round" stroke-linejoin="round"/>
<path d="M47.5896 26.5234V32.3443L42.5449 29.4339L47.5896 26.5234Z" fill="#F5F5F5" stroke="#666666" stroke-linecap="round" stroke-linejoin="round"/>
<path d="M78.038 44.0981L75.4335 45.5981L72.9928 47.0085L47.8585 32.501L47.5898 32.3443V26.5234L78.038 44.0981Z" fill="#F5F5F5" stroke="#666666" stroke-linecap="round" stroke-linejoin="round"/>
<path d="M37.4999 32.3477V38.1686L32.4551 35.2581L37.4999 32.3477Z" fill="#F5F5F5" stroke="#666666" stroke-linecap="round" stroke-linejoin="round"/>
<path d="M67.9478 49.9297L65.1119 51.5641L62.903 52.8402L45.3881 42.7208L37.7687 38.3253L37.5 38.1686V32.3477L42.8134 35.4148L47.5896 38.176L67.9478 49.9297Z" fill="#F5F5F5" stroke="#666666" stroke-linecap="round" stroke-linejoin="round"/>
<path d="M27.4104 38.168V43.9889L22.373 41.0784L27.4104 38.168Z" fill="#F5F5F5" stroke="#666666" stroke-linecap="round" stroke-linejoin="round"/>
<path d="M57.8654 55.7501L55.0221 57.3918L52.8206 58.6605L35.2982 48.5411L27.6863 44.1456L27.4102 43.9889V38.168L32.7236 41.2351L37.4997 43.9963L57.8654 55.7501Z" fill="#F5F5F5" stroke="#666666" stroke-linecap="round" stroke-linejoin="round"/>
<path d="M40.2096 65.9424V80.8678L40.1872 76.4797L32.5977 76.4722V61.5469L40.1872 61.5543L40.2096 65.9424Z" fill="#F5F5F5" stroke="#666666" stroke-linecap="round" stroke-linejoin="round"/>
<path d="M32.5963 61.5479V76.4732L32.5739 72.0852L24.9844 72.0777V57.1523L32.5739 57.1598L32.5963 61.5479Z" fill="#F5F5F5" stroke="#666666" stroke-linecap="round" stroke-linejoin="round"/>
<path d="M17.3737 52.7549V67.6803L17.3513 63.2997L9.76172 63.2847V48.3594L17.3513 48.3743L17.3587 50.1056L17.3737 52.7549Z" fill="#F5F5F5" stroke="#666666" stroke-linecap="round" stroke-linejoin="round"/>
</svg>
